<svg class="main-svg" xmlns="http://www.w3.org/2000/svg" xmlns:xlink="http://www.w3.org/1999/xlink" width="1200" height="1000" style="" viewBox="0 0 1200 1000"><rect x="0" y="0" width="1200" height="1000" style="fill: rgb(255, 255, 255); fill-opacity: 1;"/><defs id="defs-05bd8e"><g class="clips"><clipPath id="clip05bd8exyplot" class="plotclip"><rect width="1058" height="785"/></clipPath><clipPath class="axesclip" id="clip05bd8ex"><rect x="135" y="0" width="1058" height="1000"/></clipPath><clipPath class="axesclip" id="clip05bd8ey"><rect x="0" y="110" width="1200" height="785"/></clipPath><clipPath class="axesclip" id="clip05bd8exy"><rect x="135" y="110" width="1058" height="785"/></clipPath></g><g class="gradients"/><g class="patterns"/></defs><g class="bglayer"/><g class="layer-below"><g class="imagelayer"/><g class="shapelayer"/></g><g class="cartesianlayer"><g class="subplot xy"><g class="layer-subplot"><g class="shapelayer"/><g class="imagelayer"/></g><g class="minor-gridlayer"><g class="x"/><g class="y"/></g><g class="gridlayer"><g class="x"/><g class="y"><path class="ygrid crisp" transform="translate(0,840.69)" d="M135,0h1058" style="stroke: rgb(235, 240, 248); stroke-opacity: 1; stroke-width: 1px;"/><path class="ygrid crisp" transform="translate(0,633.25)" d="M135,0h1058" style="stroke: rgb(235, 240, 248); stroke-opacity: 1; stroke-width: 1px;"/><path class="ygrid crisp" transform="translate(0,425.8)" d="M135,0h1058" style="stroke: rgb(235, 240, 248); stroke-opacity: 1; stroke-width: 1px;"/><path class="ygrid crisp" transform="translate(0,218.36)" d="M135,0h1058" style="stroke: rgb(235, 240, 248); stroke-opacity: 1; stroke-width: 1px;"/></g></g><g class="zerolinelayer"/><path class="xlines-below"/><path class="ylines-below"/><g class="overlines-below"/><g class="xaxislayer-below"/><g class="yaxislayer-below"/><g class="overaxes-below"/><g class="plot" transform="translate(135,110)" clip-path="url(#clip05bd8exyplot)"><g class="scatterlayer mlayer"><g class="trace scatter tracebdfddb" style="stroke-miterlimit: 2; opacity: 1;"><g class="fills"/><g class="errorbars"/><g class="lines"><path class="js-line" d="M63.53,658.93L390.23,658.88L553.59,593.93L716.94,416.83L880.3,210.75" style="vector-effect: none; fill: none; stroke: rgb(255, 161, 90); stroke-opacity: 1; stroke-width: 5px; opacity: 1;"/></g><g class="points"><path class="point" transform="translate(63.53,658.93)" d="M8.5,0A8.5,8.5 0 1,1 0,-8.5A8.5,8.5 0 0,1 8.5,0Z" style="opacity: 1; stroke-width: 0px; fill: rgb(255, 161, 90); fill-opacity: 1;"/><path class="point" transform="translate(226.88,658.93)" d="M8.5,0A8.5,8.5 0 1,1 0,-8.5A8.5,8.5 0 0,1 8.5,0Z" style="opacity: 1; stroke-width: 0px; fill: rgb(255, 161, 90); fill-opacity: 1;"/><path class="point" transform="translate(390.23,658.88)" d="M8.5,0A8.5,8.5 0 1,1 0,-8.5A8.5,8.5 0 0,1 8.5,0Z" style="opacity: 1; stroke-width: 0px; fill: rgb(255, 161, 90); fill-opacity: 1;"/><path class="point" transform="translate(553.59,593.93)" d="M8.5,0A8.5,8.5 0 1,1 0,-8.5A8.5,8.5 0 0,1 8.5,0Z" style="opacity: 1; stroke-width: 0px; fill: rgb(255, 161, 90); fill-opacity: 1;"/><path class="point" transform="translate(716.94,416.83)" d="M8.5,0A8.5,8.5 0 1,1 0,-8.5A8.5,8.5 0 0,1 8.5,0Z" style="opacity: 1; stroke-width: 0px; fill: rgb(255, 161, 90); fill-opacity: 1;"/><path class="point" transform="translate(880.3,210.75)" d="M8.5,0A8.5,8.5 0 1,1 0,-8.5A8.5,8.5 0 0,1 8.5,0Z" style="opacity: 1; stroke-width: 0px; fill: rgb(255, 161, 90); fill-opacity: 1;"/></g><g class="text"/></g><g class="trace scatter trace36a7d3" style="stroke-miterlimit: 2; opacity: 1;"><g class="fills"/><g class="errorbars"/><g class="lines"><path class="js-line" d="M63.53,223.78L390.23,223.91L553.59,221.36L716.94,218.68L880.3,181.34L994.47,49.87" style="vector-effect: none; fill: none; stroke: rgb(239, 85, 59); stroke-opacity: 1; stroke-width: 5px; opacity: 1;"/></g><g class="points"><path class="point" transform="translate(63.53,223.78)" d="M8.5,0A8.5,8.5 0 1,1 0,-8.5A8.5,8.5 0 0,1 8.5,0Z" style="opacity: 1; stroke-width: 0px; fill: rgb(239, 85, 59); fill-opacity: 1;"/><path class="point" transform="translate(226.88,223.71)" d="M8.5,0A8.5,8.5 0 1,1 0,-8.5A8.5,8.5 0 0,1 8.5,0Z" style="opacity: 1; stroke-width: 0px; fill: rgb(239, 85, 59); fill-opacity: 1;"/><path class="point" transform="translate(390.23,223.91)" d="M8.5,0A8.5,8.5 0 1,1 0,-8.5A8.5,8.5 0 0,1 8.5,0Z" style="opacity: 1; stroke-width: 0px; fill: rgb(239, 85, 59); fill-opacity: 1;"/><path class="point" transform="translate(553.59,221.36)" d="M8.5,0A8.5,8.5 0 1,1 0,-8.5A8.5,8.5 0 0,1 8.5,0Z" style="opacity: 1; stroke-width: 0px; fill: rgb(239, 85, 59); fill-opacity: 1;"/><path class="point" transform="translate(716.94,218.68)" d="M8.5,0A8.5,8.5 0 1,1 0,-8.5A8.5,8.5 0 0,1 8.5,0Z" style="opacity: 1; stroke-width: 0px; fill: rgb(239, 85, 59); fill-opacity: 1;"/><path class="point" transform="translate(880.3,181.34)" d="M8.5,0A8.5,8.5 0 1,1 0,-8.5A8.5,8.5 0 0,1 8.5,0Z" style="opacity: 1; stroke-width: 0px; fill: rgb(239, 85, 59); fill-opacity: 1;"/><path class="point" transform="translate(994.47,49.87)" d="M8.5,0A8.5,8.5 0 1,1 0,-8.5A8.5,8.5 0 0,1 8.5,0Z" style="opacity: 1; stroke-width: 0px; fill: rgb(239, 85, 59); fill-opacity: 1;"/></g><g class="text"/></g><g class="trace scatter tracedcda56" style="stroke-miterlimit: 2; opacity: 1;"><g class="fills"/><g class="errorbars"/><g class="lines"><path class="js-line" d="M63.53,664.19L226.88,663.85L390.23,660.52L553.59,632.56L716.94,515.41L880.3,322.7L994.47,176.89" style="vector-effect: none; fill: none; stroke: rgb(171, 99, 250); stroke-opacity: 1; stroke-dasharray: 5px, 5px; stroke-width: 5px; opacity: 1;"/></g><g class="points"><path class="point" transform="translate(63.53,664.19)" d="M11.05,0L0,11.05L-11.05,0L0,-11.05Z" style="opacity: 1; stroke-width: 0px; fill: rgb(171, 99, 250); fill-opacity: 1;"/><path class="point" transform="translate(226.88,663.85)" d="M11.05,0L0,11.05L-11.05,0L0,-11.05Z" style="opacity: 1; stroke-width: 0px; fill: rgb(171, 99, 250); fill-opacity: 1;"/><path class="point" transform="translate(390.23,660.52)" d="M11.05,0L0,11.05L-11.05,0L0,-11.05Z" style="opacity: 1; stroke-width: 0px; fill: rgb(171, 99, 250); fill-opacity: 1;"/><path class="point" transform="translate(553.59,632.56)" d="M11.05,0L0,11.05L-11.05,0L0,-11.05Z" style="opacity: 1; stroke-width: 0px; fill: rgb(171, 99, 250); fill-opacity: 1;"/><path class="point" transform="translate(716.94,515.41)" d="M11.05,0L0,11.05L-11.05,0L0,-11.05Z" style="opacity: 1; stroke-width: 0px; fill: rgb(171, 99, 250); fill-opacity: 1;"/><path class="point" transform="translate(880.3,322.7)" d="M11.05,0L0,11.05L-11.05,0L0,-11.05Z" style="opacity: 1; stroke-width: 0px; fill: rgb(171, 99, 250); fill-opacity: 1;"/><path class="point" transform="translate(994.47,176.89)" d="M11.05,0L0,11.05L-11.05,0L0,-11.05Z" style="opacity: 1; stroke-width: 0px; fill: rgb(171, 99, 250); fill-opacity: 1;"/></g><g class="text"/></g><g class="trace scatter traceb15a4d" style="stroke-miterlimit: 2; opacity: 1;"><g class="fills"/><g class="errorbars"/><g class="lines"><path class="js-line" d="M63.53,639.5L390.23,639.39L553.59,620.78L716.94,611.68L880.3,536.22L994.47,407.41" style="vector-effect: none; fill: none; stroke: rgb(171, 99, 250); stroke-opacity: 1; stroke-dasharray: 15px, 15px; stroke-width: 5px; opacity: 1;"/></g><g class="points"><path class="point" transform="translate(63.53,639.5)" d="M8.5,8.5H-8.5V-8.5H8.5Z" style="opacity: 1; stroke-width: 0px; fill: rgb(171, 99, 250); fill-opacity: 1;"/><path class="point" transform="translate(226.88,639.5)" d="M8.5,8.5H-8.5V-8.5H8.5Z" style="opacity: 1; stroke-width: 0px; fill: rgb(171, 99, 250); fill-opacity: 1;"/><path class="point" transform="translate(390.23,639.39)" d="M8.5,8.5H-8.5V-8.5H8.5Z" style="opacity: 1; stroke-width: 0px; fill: rgb(171, 99, 250); fill-opacity: 1;"/><path class="point" transform="translate(553.59,620.78)" d="M8.5,8.5H-8.5V-8.5H8.5Z" style="opacity: 1; stroke-width: 0px; fill: rgb(171, 99, 250); fill-opacity: 1;"/><path class="point" transform="translate(716.94,611.68)" d="M8.5,8.5H-8.5V-8.5H8.5Z" style="opacity: 1; stroke-width: 0px; fill: rgb(171, 99, 250); fill-opacity: 1;"/><path class="point" transform="translate(880.3,536.22)" d="M8.5,8.5H-8.5V-8.5H8.5Z" style="opacity: 1; stroke-width: 0px; fill: rgb(171, 99, 250); fill-opacity: 1;"/><path class="point" transform="translate(994.47,407.41)" d="M8.5,8.5H-8.5V-8.5H8.5Z" style="opacity: 1; stroke-width: 0px; fill: rgb(171, 99, 250); fill-opacity: 1;"/></g><g class="text"/></g><g class="trace scatter trace1c4855" style="stroke-miterlimit: 2; opacity: 1;"><g class="fills"/><g class="errorbars"/><g class="lines"><path class="js-line" d="M63.53,735.13L226.88,732.7L390.23,714.19L553.59,617.57L716.94,434.46L994.47,83.01" style="vector-effect: none; fill: none; stroke: rgb(171, 99, 250); stroke-opacity: 1; stroke-dasharray: 25px, 25px; stroke-width: 5px; opacity: 1;"/></g><g class="points"><path class="point" transform="translate(63.53,735.13)" d="M0,4.81l4.81,4.81l4.81,-4.81l-4.81,-4.81l4.81,-4.81l-4.81,-4.81l-4.81,4.81l-4.81,-4.81l-4.81,4.81l4.81,4.81l-4.81,4.81l4.81,4.81Z" style="opacity: 1; stroke-width: 0px; fill: rgb(171, 99, 250); fill-opacity: 1;"/><path class="point" transform="translate(226.88,732.7)" d="M0,4.81l4.81,4.81l4.81,-4.81l-4.81,-4.81l4.81,-4.81l-4.81,-4.81l-4.81,4.81l-4.81,-4.81l-4.81,4.81l4.81,4.81l-4.81,4.81l4.81,4.81Z" style="opacity: 1; stroke-width: 0px; fill: rgb(171, 99, 250); fill-opacity: 1;"/><path class="point" transform="translate(390.23,714.19)" d="M0,4.81l4.81,4.81l4.81,-4.81l-4.81,-4.81l4.81,-4.81l-4.81,-4.81l-4.81,4.81l-4.81,-4.81l-4.81,4.81l4.81,4.81l-4.81,4.81l4.81,4.81Z" style="opacity: 1; stroke-width: 0px; fill: rgb(171, 99, 250); fill-opacity: 1;"/><path class="point" transform="translate(553.59,617.57)" d="M0,4.81l4.81,4.81l4.81,-4.81l-4.81,-4.81l4.81,-4.81l-4.81,-4.81l-4.81,4.81l-4.81,-4.81l-4.81,4.81l4.81,4.81l-4.81,4.81l4.81,4.81Z" style="opacity: 1; stroke-width: 0px; fill: rgb(171, 99, 250); fill-opacity: 1;"/><path class="point" transform="translate(716.94,434.46)" d="M0,4.81l4.81,4.81l4.81,-4.81l-4.81,-4.81l4.81,-4.81l-4.81,-4.81l-4.81,4.81l-4.81,-4.81l-4.81,4.81l4.81,4.81l-4.81,4.81l4.81,4.81Z" style="opacity: 1; stroke-width: 0px; fill: rgb(171, 99, 250); fill-opacity: 1;"/><path class="point" transform="translate(880.3,227.58)" d="M0,4.81l4.81,4.81l4.81,-4.81l-4.81,-4.81l4.81,-4.81l-4.81,-4.81l-4.81,4.81l-4.81,-4.81l-4.81,4.81l4.81,4.81l-4.81,4.81l4.81,4.81Z" style="opacity: 1; stroke-width: 0px; fill: rgb(171, 99, 250); fill-opacity: 1;"/><path class="point" transform="translate(994.47,83.01)" d="M0,4.81l4.81,4.81l4.81,-4.81l-4.81,-4.81l4.81,-4.81l-4.81,-4.81l-4.81,4.81l-4.81,-4.81l-4.81,4.81l4.81,4.81l-4.81,4.81l4.81,4.81Z" style="opacity: 1; stroke-width: 0px; fill: rgb(171, 99, 250); fill-opacity: 1;"/></g><g class="text"/></g></g></g><g class="overplot"/><path class="xlines-above crisp" d="M0,0" style="fill: none;"/><path class="ylines-above crisp" d="M0,0" style="fill: none;"/><g class="overlines-above"/><g class="xaxislayer-above"><g class="xtick"><text text-anchor="middle" x="0" y="926" transform="translate(198.53,0)" style="font-family: 'Open Sans', verdana, arial, sans-serif; font-size: 30px; fill: rgb(42, 63, 95); fill-opacity: 1; white-space: pre; opacity: 1;">1</text></g><g class="xtick"><text text-anchor="middle" x="0" y="926" style="font-family: 'Open Sans', verdana, arial, sans-serif; font-size: 30px; fill: rgb(42, 63, 95); fill-opacity: 1; white-space: pre; opacity: 1;" transform="translate(361.88,0)">10</text></g><g class="xtick"><text text-anchor="middle" x="0" y="926" style="font-family: 'Open Sans', verdana, arial, sans-serif; font-size: 30px; fill: rgb(42, 63, 95); fill-opacity: 1; white-space: pre; opacity: 1;" transform="translate(525.23,0)">100</text></g><g class="xtick"><text text-anchor="middle" x="0" y="926" style="font-family: 'Open Sans', verdana, arial, sans-serif; font-size: 30px; fill: rgb(42, 63, 95); fill-opacity: 1; white-space: pre; opacity: 1;" transform="translate(688.59,0)">1000</text></g><g class="xtick"><text text-anchor="middle" x="0" y="926" style="font-family: 'Open Sans', verdana, arial, sans-serif; font-size: 30px; fill: rgb(42, 63, 95); fill-opacity: 1; white-space: pre; opacity: 1;" transform="translate(851.94,0)">10k</text></g><g class="xtick"><text text-anchor="middle" x="0" y="926" style="font-family: 'Open Sans', verdana, arial, sans-serif; font-size: 30px; fill: rgb(42, 63, 95); fill-opacity: 1; white-space: pre; opacity: 1;" transform="translate(1015.3,0)">100k</text></g><g class="xtick"><text text-anchor="middle" x="0" y="926" style="font-family: 'Open Sans', verdana, arial, sans-serif; font-size: 30px; fill: rgb(42, 63, 95); fill-opacity: 1; white-space: pre; opacity: 0;" transform="translate(1178.65,0)">1M</text></g></g><g class="yaxislayer-above"><g class="ytick"><text text-anchor="end" x="134" y="10.5" transform="translate(0,840.69)" style="font-family: 'Open Sans', verdana, arial, sans-serif; font-size: 30px; fill: rgb(42, 63, 95); fill-opacity: 1; white-space: pre; opacity: 1;">10</text></g><g class="ytick"><text text-anchor="end" x="134" y="10.5" style="font-family: 'Open Sans', verdana, arial, sans-serif; font-size: 30px; fill: rgb(42, 63, 95); fill-opacity: 1; white-space: pre; opacity: 1;" transform="translate(0,633.25)">100</text></g><g class="ytick"><text text-anchor="end" x="134" y="10.5" style="font-family: 'Open Sans', verdana, arial, sans-serif; font-size: 30px; fill: rgb(42, 63, 95); fill-opacity: 1; white-space: pre; opacity: 1;" transform="translate(0,425.8)">1000</text></g><g class="ytick"><text text-anchor="end" x="134" y="10.5" style="font-family: 'Open Sans', verdana, arial, sans-serif; font-size: 30px; fill: rgb(42, 63, 95); fill-opacity: 1; white-space: pre; opacity: 1;" transform="translate(0,218.36)">10k</text></g></g><g class="overaxes-above"/></g></g><g class="polarlayer"/><g class="smithlayer"/><g class="ternarylayer"/><g class="geolayer"/><g class="funnelarealayer"/><g class="pielayer"/><g class="iciclelayer"/><g class="treemaplayer"/><g class="sunburstlayer"/><g class="glimages"/><defs id="topdefs-05bd8e"><g class="clips"/><clipPath id="legend05bd8e"><rect width="885" height="94" x="0" y="0"/></clipPath></defs><g class="layer-above"><g class="imagelayer"/><g class="shapelayer"/></g><g class="infolayer"><g class="legend" pointer-events="all" transform="translate(135,0.29999999999998295)"><rect class="bg" shape-rendering="crispEdges" width="885" height="94" x="0" y="0" style="stroke: rgb(68, 68, 68); stroke-opacity: 1; fill: rgb(255, 255, 255); fill-opacity: 1; stroke-width: 0px;"/><g class="scrollbox" transform="" clip-path="url(#legend05bd8e)"><g class="groups" transform=""><g class="traces" transform="translate(0,26)" style="opacity: 1;"><text class="legendtext" text-anchor="start" x="40" y="11.7" style="font-family: 'Open Sans', verdana, arial, sans-serif; font-size: 30px; fill: rgb(42, 63, 95); fill-opacity: 1; white-space: pre;">ABY, </text><g class="layers" style="opacity: 1;"><g class="legendfill"/><g class="legendlines"><path class="js-line" d="M5,0h30" style="fill: none; stroke: rgb(255, 161, 90); stroke-opacity: 1; stroke-width: 5px;"/></g><g class="legendsymbols"><g class="legendpoints"><path class="scatterpts" transform="translate(20,0)" d="M8,0A8,8 0 1,1 0,-8A8,8 0 0,1 8,0Z" style="opacity: 1; stroke-width: 0px; fill: rgb(255, 161, 90); fill-opacity: 1;"/></g></g></g><rect class="legendtoggle" x="0" y="-21" width="292.5" height="42" style="fill: rgb(0, 0, 0); fill-opacity: 0;"/></g></g><g class="groups" transform="translate(295,0)"><g class="traces" transform="translate(0,26)" style="opacity: 1;"><text class="legendtext" text-anchor="start" x="40" y="11.7" style="font-family: 'Open Sans', verdana, arial, sans-serif; font-size: 30px; fill: rgb(42, 63, 95); fill-opacity: 1; white-space: pre;">MOTION, </text><g class="layers" style="opacity: 1;"><g class="legendfill"/><g class="legendlines"><path class="js-line" d="M5,0h30" style="fill: none; stroke: rgb(239, 85, 59); stroke-opacity: 1; stroke-width: 5px;"/></g><g class="legendsymbols"><g class="legendpoints"><path class="scatterpts" transform="translate(20,0)" d="M8,0A8,8 0 1,1 0,-8A8,8 0 0,1 8,0Z" style="opacity: 1; stroke-width: 0px; fill: rgb(239, 85, 59); fill-opacity: 1;"/></g></g></g><rect class="legendtoggle" x="0" y="-21" width="292.5" height="42" style="fill: rgb(0, 0, 0); fill-opacity: 0;"/></g></g><g class="groups" transform="translate(590,0)"><g class="traces" transform="translate(0,26)" style="opacity: 1;"><text class="legendtext" text-anchor="start" x="40" y="11.7" style="font-family: 'Open Sans', verdana, arial, sans-serif; font-size: 30px; fill: rgb(42, 63, 95); fill-opacity: 1; white-space: pre;">SEEC, DL/FG</text><g class="layers" style="opacity: 1;"><g class="legendfill"/><g class="legendlines"><path class="js-line" d="M5,0h30" style="fill: none; stroke: rgb(171, 99, 250); stroke-opacity: 1; stroke-dasharray: 5px, 5px; stroke-width: 5px;"/></g><g class="legendsymbols"><g class="legendpoints"><path class="scatterpts" transform="translate(20,0)" d="M10.4,0L0,10.4L-10.4,0L0,-10.4Z" style="opacity: 1; stroke-width: 0px; fill: rgb(171, 99, 250); fill-opacity: 1;"/></g></g></g><rect class="legendtoggle" x="0" y="-21" width="292.5" height="42" style="fill: rgb(0, 0, 0); fill-opacity: 0;"/></g></g><g class="groups" transform="translate(0,42)"><g class="traces" transform="translate(0,26)" style="opacity: 1;"><text class="legendtext" text-anchor="start" x="40" y="11.7" style="font-family: 'Open Sans', verdana, arial, sans-serif; font-size: 30px; fill: rgb(42, 63, 95); fill-opacity: 1; white-space: pre;">SEEC, DL/IS/FG</text><g class="layers" style="opacity: 1;"><g class="legendfill"/><g class="legendlines"><path class="js-line" d="M5,0h30" style="fill: none; stroke: rgb(171, 99, 250); stroke-opacity: 1; stroke-dasharray: 15px, 15px; stroke-width: 5px;"/></g><g class="legendsymbols"><g class="legendpoints"><path class="scatterpts" transform="translate(20,0)" d="M8,8H-8V-8H8Z" style="opacity: 1; stroke-width: 0px; fill: rgb(171, 99, 250); fill-opacity: 1;"/></g></g></g><rect class="legendtoggle" x="0" y="-21" width="292.5" height="42" style="fill: rgb(0, 0, 0); fill-opacity: 0;"/></g></g><g class="groups" transform="translate(295,42)"><g class="traces" transform="translate(0,26)" style="opacity: 1;"><text class="legendtext" text-anchor="start" x="40" y="11.7" style="font-family: 'Open Sans', verdana, arial, sans-serif; font-size: 30px; fill: rgb(42, 63, 95); fill-opacity: 1; white-space: pre;">SEEC, SL</text><g class="layers" style="opacity: 1;"><g class="legendfill"/><g class="legendlines"><path class="js-line" d="M5,0h30" style="fill: none; stroke: rgb(171, 99, 250); stroke-opacity: 1; stroke-dasharray: 25px, 25px; stroke-width: 5px;"/></g><g class="legendsymbols"><g class="legendpoints"><path class="scatterpts" transform="translate(20,0)" d="M0,4.53l4.53,4.53l4.53,-4.53l-4.53,-4.53l4.53,-4.53l-4.53,-4.53l-4.53,4.53l-4.53,-4.53l-4.53,4.53l4.53,4.53l-4.53,4.53l4.53,4.53Z" style="opacity: 1; stroke-width: 0px; fill: rgb(171, 99, 250); fill-opacity: 1;"/></g></g></g><rect class="legendtoggle" x="0" y="-21" width="292.5" height="42" style="fill: rgb(0, 0, 0); fill-opacity: 0;"/></g></g></g><rect class="scrollbar" rx="20" ry="3" width="0" height="0" x="0" y="0" style="fill: rgb(128, 139, 164); fill-opacity: 1;"/></g><g class="g-gtitle"/><g class="g-xtitle" transform="translate(0,-10.700000000000045)"><text class="xtitle" x="664" y="999.7" text-anchor="middle" style="font-family: 'Open Sans', verdana, arial, sans-serif; font-size: 36px; fill: rgb(42, 63, 95); opacity: 1; font-weight: normal; white-space: pre;">Parallel Circuits</text></g><g class="g-ytitle" transform="translate(37.3251953125,0)"><text class="ytitle" transform="rotate(-90,0.6750000000000114,502.5)" x="0.6750000000000114" y="502.5" text-anchor="middle" style="font-family: 'Open Sans', verdana, arial, sans-serif; font-size: 36px; fill: rgb(42, 63, 95); opacity: 1; font-weight: normal; white-space: pre;">Peak Memory (MB)</text></g></g></svg>